<?xml version="1.0" encoding="iso-8859-1"?>
<!-- Generator: Adobe Illustrator 19.0.0, SVG Export Plug-In . SVG Version: 6.00 Build 0)  -->
<svg version="1.1" id="Capa_1" xmlns="http://www.w3.org/2000/svg" xmlns:xlink="http://www.w3.org/1999/xlink" x="0px" y="0px"
	 viewBox="0 0 512 512" style="enable-background:new 0 0 512 512;" xml:space="preserve">
<g>
	<g>
		<path d="M489.19,255.515v-66.209c0-29.437-23.948-53.386-53.386-53.386h-70.577V59.195H146.773v76.725H76.196
			c-29.437,0-53.386,23.949-53.386,53.386v66.209H0v30h22.81v113.903c0,29.437,23.948,53.386,53.386,53.386h359.607
			c29.438,0,53.386-23.949,53.386-53.386V285.515H512v-30H489.19z M176.773,89.195h158.453v46.725H176.773V89.195z M459.19,399.417
			c0,12.895-10.491,23.386-23.386,23.386H76.196c-12.894,0-23.386-10.491-23.386-23.386V285.515h133.077l16.153,70.745h107.918
			l16.153-70.745H459.19V399.417z M216.659,285.515h78.682l-9.304,40.745h-60.074L216.659,285.515z M459.19,255.515H52.811v-66.209
			c0-12.895,10.491-23.386,23.386-23.386h359.607c12.895,0,23.386,10.491,23.386,23.386V255.515z"/>
	</g>
</g>
<g>
</g>
<g>
</g>
<g>
</g>
<g>
</g>
<g>
</g>
<g>
</g>
<g>
</g>
<g>
</g>
<g>
</g>
<g>
</g>
<g>
</g>
<g>
</g>
<g>
</g>
<g>
</g>
<g>
</g>
</svg>
